<?xml version="1.0" encoding="utf-8"?>
<!-- Generator: Adobe Illustrator 19.1.0, SVG Export Plug-In . SVG Version: 6.00 Build 0)  -->
<svg version="1.1" id="Layer_2" xmlns="http://www.w3.org/2000/svg" xmlns:xlink="http://www.w3.org/1999/xlink" x="0px" y="0px"
	 viewBox="0 0 72 72" style="enable-background:new 0 0 72 72;" xml:space="preserve">
<style type="text/css">
	.st0{enable-background:new    ;}
</style>
<g>
	<g id="_x35_-interface_-_arrow_right" class="st0">
		<g id="_x35_-interface_-_arrow_right_1_">
			<g>
				<path d="M67.3,36c0,0,0-0.1,0-0.1c0-0.4-0.2-0.8-0.5-1.1c-0.1-0.1,0-0.2-0.1-0.3c-0.1-0.1-0.2,0-0.3-0.1c0,0-0.1-0.1-0.1-0.1
					L42,12c-0.9-0.9-2.2-0.9-3.1,0c-0.9,0.9-0.9,2.2,0,3.1l20.5,18.6H6.9c-1.2,0-2.2,1-2.2,2.2c0,1.2,1,2.2,2.2,2.2h52.5L38.9,56.9
					c-0.9,0.9-0.9,2.2,0,3.1c0.9,0.9,2.2,0.9,3.1,0l24.5-22.3c0,0,0.1,0,0.1,0c0,0,0.1,0,0.1,0c0,0,0-0.1,0-0.1
					c0.3-0.4,0.5-0.8,0.6-1.4C67.3,36.1,67.3,36.1,67.3,36C67.3,36,67.3,36,67.3,36C67.3,36,67.3,36,67.3,36z"/>
			</g>
		</g>
	</g>
	<g id="Layer_1_1_">
	</g>
</g>
</svg>
